<svg width="399" height="305" viewBox="0 0 399 305" fill="none" xmlns="http://www.w3.org/2000/svg">
<path d="M206.172 304.7C312.401 304.7 398.516 300.002 398.516 294.207C398.516 288.412 312.401 283.714 206.172 283.714C99.9433 283.714 13.8278 288.412 13.8278 294.207C13.8278 300.002 99.9433 304.7 206.172 304.7Z" fill="#615FFF"/>
<path opacity="0.3" d="M206.172 304.7C312.401 304.7 398.516 300.002 398.516 294.207C398.516 288.412 312.401 283.714 206.172 283.714C99.9433 283.714 13.8278 288.412 13.8278 294.207C13.8278 300.002 99.9433 304.7 206.172 304.7Z" fill="white"/>
<path d="M319.842 136.045C319.784 136.045 320.511 132.431 320.588 132.17C321.422 129.593 324.561 125.097 327.594 125.107C328.098 125.121 328.593 125.241 329.048 125.46C329.503 125.678 329.906 125.99 330.233 126.375C330.559 126.76 330.8 127.209 330.942 127.693C331.083 128.177 331.121 128.686 331.053 129.186C330.83 131.327 328.911 133.139 327.177 134.195C325.142 135.464 319.842 136.045 319.842 136.045Z" fill="#615FFF"/>
<path d="M313.961 111.716C316.82 112.743 318.244 118.034 318.147 120.747C318.147 120.979 317.604 124.622 317.556 124.622H317.498C317.721 125.455 317.963 126.356 318.205 127.335C318.631 129.157 319.096 131.211 319.455 133.497C319.871 135.95 320.142 138.425 320.269 140.909C320.423 143.689 320.329 146.478 319.988 149.242C319.982 149.274 319.982 149.306 319.988 149.339C320.366 148.534 321.48 146.306 321.586 146.141C323.079 143.874 327.284 140.328 330.219 141.18C330.7 141.329 331.145 141.577 331.524 141.908C331.904 142.239 332.209 142.646 332.421 143.103C332.633 143.559 332.747 144.055 332.754 144.559C332.762 145.062 332.665 145.562 332.467 146.025C331.692 148.021 329.367 149.271 327.419 149.823C325.22 150.453 320.317 149.707 319.93 149.649C319.516 152.451 318.914 155.221 318.128 157.942C317.675 159.531 317.184 161.12 316.655 162.709C316.994 162.021 317.314 161.411 317.362 161.324C318.854 159.056 323.059 155.51 325.995 156.353C326.477 156.5 326.923 156.747 327.303 157.078C327.683 157.409 327.989 157.816 328.201 158.273C328.413 158.731 328.526 159.227 328.534 159.731C328.541 160.235 328.442 160.735 328.243 161.198C327.468 163.203 325.142 164.444 323.195 165.005C321.247 165.567 317.023 165.005 315.918 164.86C315.715 165.461 315.512 166.071 315.298 166.672C314.329 169.579 313.283 172.485 312.392 175.334C312.072 176.303 311.791 177.349 311.51 178.357C311.82 177.746 312.082 177.233 312.13 177.165C313.613 174.898 317.827 171.352 320.753 172.195C321.234 172.343 321.679 172.591 322.059 172.922C322.438 173.253 322.744 173.66 322.957 174.116C323.169 174.572 323.284 175.068 323.293 175.572C323.303 176.075 323.206 176.575 323.011 177.039C322.236 179.035 319.901 180.285 317.953 180.837C316.006 181.389 312.198 180.905 310.88 180.721C310.619 181.767 310.367 182.804 310.163 183.821C310.037 184.519 309.873 185.187 309.785 185.895C309.698 186.602 309.592 187.29 309.495 187.968C309.359 189.296 309.204 190.671 309.107 191.97C309.03 192.871 308.972 193.733 308.913 194.595C309.214 193.627 309.882 191.631 309.931 191.466C311.007 189.336 312.607 187.516 314.581 186.176C314.689 185.933 314.822 185.702 314.979 185.488C315.253 185.065 315.614 184.705 316.036 184.43C316.459 184.156 316.935 183.973 317.433 183.895C317.931 183.816 318.44 183.843 318.927 183.974C319.414 184.105 319.868 184.337 320.259 184.655C322.565 186.592 321.984 192.096 320.928 194.595C320.869 194.741 320.007 196.262 319.455 197.211C319.872 196.708 320.259 196.243 320.695 195.681C321.538 194.654 322.41 193.646 323.34 192.561L324.764 191.02C325.229 190.487 325.791 189.993 326.305 189.48C327.516 188.307 328.805 187.174 330.132 186.059C329.221 185.323 326.053 182.639 325.142 180.818C324.232 178.996 323.582 176.448 324.532 174.53C324.74 174.069 325.042 173.657 325.42 173.321C325.797 172.985 326.241 172.732 326.723 172.58C327.205 172.427 327.714 172.378 328.216 172.435C328.718 172.492 329.203 172.654 329.638 172.912C332.206 174.52 332.467 179.994 331.799 182.601C331.799 182.765 331.062 184.596 330.665 185.594C331.469 184.936 332.264 184.267 333.097 183.657C335.5 181.796 337.99 179.994 340.46 178.182L342.718 176.506C342.398 176.245 338.561 173.144 337.534 171.11C336.633 169.298 335.975 166.74 336.924 164.812C337.133 164.352 337.436 163.941 337.814 163.606C338.192 163.271 338.636 163.019 339.117 162.866C339.598 162.714 340.106 162.664 340.608 162.72C341.11 162.777 341.595 162.938 342.03 163.194C344.598 164.812 344.859 170.286 344.191 172.883C344.142 173.086 343.144 175.721 342.854 176.38C344.51 175.14 346.148 173.9 347.698 172.611C349.821 170.878 351.827 169.007 353.705 167.011C353.56 166.895 349.539 163.678 348.493 161.585C347.582 159.773 346.933 157.216 347.882 155.297C348.089 154.837 348.39 154.425 348.767 154.089C349.144 153.753 349.587 153.5 350.068 153.348C350.549 153.195 351.057 153.145 351.559 153.203C352.06 153.26 352.544 153.422 352.979 153.679C355.556 155.287 355.817 160.762 355.149 163.368C355.1 163.533 354.345 165.548 353.957 166.498L354.112 166.585C355.95 164.527 357.6 162.309 359.044 159.958C359.848 158.679 360.555 157.409 361.214 156.15C360.4 155.627 356.728 153.243 355.575 151.422C354.422 149.6 353.55 147.255 354.277 145.24C354.433 144.766 354.687 144.329 355.022 143.959C355.357 143.588 355.765 143.291 356.221 143.087C356.676 142.883 357.17 142.776 357.669 142.773C358.169 142.77 358.663 142.871 359.121 143.07C361.863 144.387 362.716 149.804 362.338 152.487C362.338 152.633 361.95 154.096 361.669 155.162C361.95 154.59 362.261 154.009 362.522 153.456C363.491 151.383 364.315 149.426 364.993 147.643C365.38 146.674 365.7 145.705 365.962 144.901C365.429 143.932 363.355 140.202 363.152 138.119C362.948 136.036 363.278 133.478 364.857 132.024C365.217 131.671 365.648 131.398 366.121 131.222C366.594 131.046 367.099 130.971 367.602 131.003C368.106 131.035 368.597 131.173 369.044 131.407C369.491 131.642 369.883 131.967 370.196 132.364C372.017 134.795 370.283 139.989 368.713 142.207C368.578 142.392 366.107 145.114 366.078 145.114V145.056C365.807 145.88 365.516 146.761 365.167 147.711C364.528 149.464 363.772 151.451 362.822 153.524C361.811 155.797 360.669 158.01 359.402 160.151C357.991 162.551 356.37 164.821 354.558 166.934L354.49 167.011C355.246 166.536 357.397 165.306 357.581 165.228C360.081 164.163 365.526 163.552 367.522 165.848C367.841 166.238 368.076 166.691 368.21 167.177C368.344 167.663 368.374 168.171 368.3 168.67C368.225 169.169 368.046 169.646 367.775 170.071C367.504 170.496 367.147 170.86 366.727 171.139C364.973 172.379 362.338 172.107 360.41 171.516C358.23 170.829 354.597 167.505 354.257 167.244C352.368 169.351 350.339 171.329 348.183 173.164C346.923 174.249 345.634 175.295 344.307 176.322C344.976 175.944 345.576 175.605 345.663 175.566C348.153 174.501 353.599 173.89 355.595 176.186C355.916 176.576 356.152 177.028 356.286 177.514C356.421 178.001 356.452 178.51 356.377 179.009C356.302 179.508 356.123 179.985 355.851 180.411C355.58 180.836 355.221 181.199 354.8 181.477C353.056 182.717 350.421 182.446 348.493 181.855C346.564 181.263 343.338 178.473 342.505 177.727L340.984 178.899C338.542 180.769 336.139 182.62 333.765 184.509C332.942 185.178 332.157 185.866 331.363 186.544C331.963 186.205 332.457 185.924 332.545 185.895C335.035 184.819 340.48 184.219 342.476 186.505C342.798 186.894 343.035 187.346 343.171 187.833C343.307 188.319 343.338 188.829 343.263 189.328C343.188 189.828 343.009 190.306 342.736 190.731C342.463 191.156 342.104 191.519 341.681 191.795C339.928 193.035 337.302 192.764 335.374 192.183C333.446 191.602 330.529 189.063 329.56 188.181C328.776 188.908 327.981 189.625 327.254 190.371C326.76 190.885 326.286 191.34 325.801 191.892C325.317 192.444 324.832 192.939 324.406 193.462C323.563 194.489 322.681 195.555 321.877 196.582C321.315 197.289 320.792 197.977 320.269 198.665C321.073 197.996 322.701 196.727 322.846 196.62C325.142 195.186 330.432 193.762 332.758 195.719C333.133 196.057 333.434 196.47 333.639 196.932C333.845 197.394 333.951 197.893 333.951 198.398C333.951 198.904 333.845 199.403 333.639 199.865C333.434 200.326 333.133 200.739 332.758 201.077C331.217 202.56 328.582 202.724 326.586 202.414C324.377 202.066 320.385 199.508 319.891 199.14C319.019 200.283 318.186 201.407 317.411 202.482C314.727 206.193 312.634 209.381 311.2 211.638L311.055 211.861L309.194 210.96C309.291 210.815 309.388 210.679 309.485 210.524C310.987 208.276 313.176 205.098 315.967 201.407C316.849 200.244 317.808 199.014 318.806 197.754C317.767 196.624 316.797 195.433 315.899 194.188C313.758 195.022 309.311 195.06 308.739 195.06C308.652 196.494 308.574 197.89 308.516 199.207C308.322 203.79 308.342 207.608 308.39 210.272V210.592L306.346 209.623C306.346 206.978 306.452 203.383 306.724 199.149C306.811 197.686 306.937 196.126 307.082 194.537C306.511 194.392 301.889 193.2 300.145 191.805C298.566 190.545 296.899 188.491 296.957 186.35C296.952 185.845 297.053 185.345 297.255 184.881C297.456 184.418 297.753 184.003 298.127 183.663C298.5 183.322 298.941 183.065 299.42 182.907C299.9 182.749 300.408 182.694 300.91 182.746C303.924 183.133 306.443 187.997 306.947 190.662C306.947 190.817 307.102 192.6 307.16 193.665C307.228 193.006 307.276 192.377 307.344 191.728C307.479 190.4 307.654 189.073 307.838 187.648C307.944 186.97 308.061 186.282 308.167 185.585C308.274 184.887 308.458 184.17 308.603 183.453C308.972 181.806 309.417 180.149 309.911 178.492C308.749 178.366 304.631 177.882 302.858 176.874C301.085 175.867 299.147 174.084 298.885 171.962C298.803 171.463 298.827 170.953 298.955 170.464C299.084 169.975 299.315 169.519 299.632 169.125C299.95 168.732 300.347 168.41 300.798 168.181C301.248 167.952 301.742 167.821 302.247 167.796C305.28 167.718 308.516 172.146 309.408 174.704C309.466 174.869 309.902 176.777 310.115 177.834C310.425 176.865 310.716 175.838 311.084 174.849C312.053 171.943 313.147 169.094 314.213 166.217C314.543 165.335 314.853 164.453 315.182 163.581C314.765 163.581 309.853 163.068 307.877 161.934C306.123 160.965 304.166 159.144 303.895 157.022C303.815 156.523 303.841 156.014 303.971 155.526C304.101 155.039 304.332 154.584 304.649 154.191C304.966 153.798 305.362 153.476 305.811 153.246C306.26 153.016 306.753 152.883 307.257 152.856C310.299 152.778 313.535 157.206 314.426 159.764C314.494 159.958 315.114 162.67 315.24 163.417C315.938 161.479 316.626 159.541 317.178 157.603C317.997 154.987 318.645 152.32 319.116 149.619C318.922 149.619 313.787 149.135 311.772 147.972C310.008 147.003 308.051 145.182 307.789 143.06C307.71 142.562 307.736 142.052 307.866 141.565C307.996 141.077 308.227 140.622 308.544 140.229C308.861 139.837 309.257 139.515 309.706 139.285C310.155 139.055 310.648 138.921 311.152 138.894C314.184 138.826 317.42 143.244 318.312 145.802C318.37 145.976 318.845 148.069 319.048 149.067H319.222C319.622 146.338 319.778 143.579 319.687 140.822C319.687 139.301 319.542 137.857 319.397 136.443C318.428 136.443 314.029 136.443 312.091 135.609C310.154 134.776 308.09 133.245 307.586 131.162C307.452 130.674 307.422 130.163 307.498 129.663C307.575 129.163 307.757 128.684 308.031 128.259C308.305 127.834 308.667 127.471 309.091 127.195C309.515 126.919 309.993 126.735 310.493 126.657C313.506 126.25 317.207 130.29 318.379 132.741C318.438 132.877 318.941 134.301 319.28 135.338C319.213 134.708 319.145 134.049 319.058 133.449C318.757 131.172 318.331 129.098 317.943 127.277C317.711 126.24 317.488 125.339 317.265 124.438C316.296 123.954 312.498 121.958 311.19 120.34C309.882 118.722 308.739 116.406 309.252 114.323C309.363 113.826 309.578 113.359 309.883 112.951C310.187 112.544 310.575 112.206 311.02 111.96C311.465 111.713 311.958 111.564 312.465 111.522C312.972 111.48 313.482 111.547 313.961 111.716Z" fill="#615FFF"/>
<path d="M368.878 158.543C366.504 158.446 361.757 156.014 361.757 156.004C361.757 155.995 364.305 153.369 364.489 153.224C366.611 151.528 371.707 149.513 374.236 151.189C374.648 151.481 374.995 151.856 375.253 152.29C375.511 152.724 375.675 153.207 375.735 153.709C375.794 154.21 375.748 154.718 375.598 155.201C375.448 155.683 375.199 156.129 374.866 156.508C373.509 158.136 370.903 158.62 368.878 158.543Z" fill="#615FFF"/>
<g opacity="0.5">
<path d="M319.842 136.045C319.784 136.045 320.511 132.431 320.588 132.17C321.422 129.593 324.561 125.097 327.594 125.107C328.098 125.121 328.593 125.241 329.048 125.46C329.503 125.678 329.906 125.99 330.233 126.375C330.559 126.76 330.8 127.209 330.942 127.693C331.083 128.177 331.121 128.686 331.053 129.186C330.83 131.327 328.911 133.139 327.177 134.195C325.142 135.464 319.842 136.045 319.842 136.045Z" fill="white"/>
<path d="M313.961 111.716C316.82 112.743 318.244 118.034 318.147 120.747C318.147 120.979 317.604 124.622 317.556 124.622H317.498C317.721 125.455 317.963 126.356 318.205 127.335C318.631 129.157 319.096 131.211 319.455 133.497C319.871 135.95 320.142 138.425 320.269 140.909C320.423 143.689 320.329 146.478 319.988 149.242C319.982 149.274 319.982 149.306 319.988 149.339C320.366 148.534 321.48 146.306 321.586 146.141C323.079 143.874 327.284 140.328 330.219 141.18C330.7 141.329 331.145 141.577 331.524 141.908C331.904 142.239 332.209 142.646 332.421 143.103C332.633 143.559 332.747 144.055 332.754 144.559C332.762 145.062 332.665 145.562 332.467 146.025C331.692 148.021 329.367 149.271 327.419 149.823C325.22 150.453 320.317 149.707 319.93 149.649C319.516 152.451 318.914 155.221 318.128 157.942C317.675 159.531 317.184 161.12 316.655 162.709C316.994 162.021 317.314 161.411 317.362 161.324C318.854 159.056 323.059 155.51 325.995 156.353C326.477 156.5 326.923 156.747 327.303 157.078C327.683 157.409 327.989 157.816 328.201 158.273C328.413 158.731 328.526 159.227 328.534 159.731C328.541 160.235 328.442 160.735 328.243 161.198C327.468 163.203 325.142 164.444 323.195 165.005C321.247 165.567 317.023 165.005 315.918 164.86C315.715 165.461 315.512 166.071 315.298 166.672C314.329 169.579 313.283 172.485 312.392 175.334C312.072 176.303 311.791 177.349 311.51 178.357C311.82 177.746 312.082 177.233 312.13 177.165C313.613 174.898 317.827 171.352 320.753 172.195C321.234 172.343 321.679 172.591 322.059 172.922C322.438 173.253 322.744 173.66 322.957 174.116C323.169 174.572 323.284 175.068 323.293 175.572C323.303 176.075 323.206 176.575 323.011 177.039C322.236 179.035 319.901 180.285 317.953 180.837C316.006 181.389 312.198 180.905 310.88 180.721C310.619 181.767 310.367 182.804 310.163 183.821C310.037 184.519 309.873 185.187 309.785 185.895C309.698 186.602 309.592 187.29 309.495 187.968C309.359 189.296 309.204 190.671 309.107 191.97C309.03 192.871 308.972 193.733 308.913 194.595C309.214 193.627 309.882 191.631 309.931 191.466C311.007 189.336 312.607 187.516 314.581 186.176C314.689 185.933 314.822 185.702 314.979 185.488C315.253 185.065 315.614 184.705 316.036 184.43C316.459 184.156 316.935 183.973 317.433 183.895C317.931 183.816 318.44 183.843 318.927 183.974C319.414 184.105 319.868 184.337 320.259 184.655C322.565 186.592 321.984 192.096 320.928 194.595C320.869 194.741 320.007 196.262 319.455 197.211C319.872 196.708 320.259 196.243 320.695 195.681C321.538 194.654 322.41 193.646 323.34 192.561L324.764 191.02C325.229 190.487 325.791 189.993 326.305 189.48C327.516 188.307 328.805 187.174 330.132 186.059C329.221 185.323 326.053 182.639 325.142 180.818C324.232 178.996 323.582 176.448 324.532 174.53C324.74 174.069 325.042 173.657 325.42 173.321C325.797 172.985 326.241 172.732 326.723 172.58C327.205 172.427 327.714 172.378 328.216 172.435C328.718 172.492 329.203 172.654 329.638 172.912C332.206 174.52 332.467 179.994 331.799 182.601C331.799 182.765 331.062 184.596 330.665 185.594C331.469 184.936 332.264 184.267 333.097 183.657C335.5 181.796 337.99 179.994 340.46 178.182L342.718 176.506C342.398 176.245 338.561 173.144 337.534 171.11C336.633 169.298 335.975 166.74 336.924 164.812C337.133 164.352 337.436 163.941 337.814 163.606C338.192 163.271 338.636 163.019 339.117 162.866C339.598 162.714 340.106 162.664 340.608 162.72C341.11 162.777 341.595 162.938 342.03 163.194C344.598 164.812 344.859 170.286 344.191 172.883C344.142 173.086 343.144 175.721 342.854 176.38C344.51 175.14 346.148 173.9 347.698 172.611C349.821 170.878 351.827 169.007 353.705 167.011C353.56 166.895 349.539 163.678 348.493 161.585C347.582 159.773 346.933 157.216 347.882 155.297C348.089 154.837 348.39 154.425 348.767 154.089C349.144 153.753 349.587 153.5 350.068 153.348C350.549 153.195 351.057 153.145 351.559 153.203C352.06 153.26 352.544 153.422 352.979 153.679C355.556 155.287 355.817 160.762 355.149 163.368C355.1 163.533 354.345 165.548 353.957 166.498L354.112 166.585C355.95 164.527 357.6 162.309 359.044 159.958C359.848 158.679 360.555 157.409 361.214 156.15C360.4 155.627 356.728 153.243 355.575 151.422C354.422 149.6 353.55 147.255 354.277 145.24C354.433 144.766 354.687 144.329 355.022 143.959C355.357 143.588 355.765 143.291 356.221 143.087C356.676 142.883 357.17 142.776 357.669 142.773C358.169 142.77 358.663 142.871 359.121 143.07C361.863 144.387 362.716 149.804 362.338 152.487C362.338 152.633 361.95 154.096 361.669 155.162C361.95 154.59 362.261 154.009 362.522 153.456C363.491 151.383 364.315 149.426 364.993 147.643C365.38 146.674 365.7 145.705 365.962 144.901C365.429 143.932 363.355 140.202 363.152 138.119C362.948 136.036 363.278 133.478 364.857 132.024C365.217 131.671 365.648 131.398 366.121 131.222C366.594 131.046 367.099 130.971 367.602 131.003C368.106 131.035 368.597 131.173 369.044 131.407C369.491 131.642 369.883 131.967 370.196 132.364C372.017 134.795 370.283 139.989 368.713 142.207C368.578 142.392 366.107 145.114 366.078 145.114V145.056C365.807 145.88 365.516 146.761 365.167 147.711C364.528 149.464 363.772 151.451 362.822 153.524C361.811 155.797 360.669 158.01 359.402 160.151C357.991 162.551 356.37 164.821 354.558 166.934L354.49 167.011C355.246 166.536 357.397 165.306 357.581 165.228C360.081 164.163 365.526 163.552 367.522 165.848C367.841 166.238 368.076 166.691 368.21 167.177C368.344 167.663 368.374 168.171 368.3 168.67C368.225 169.169 368.046 169.646 367.775 170.071C367.504 170.496 367.147 170.86 366.727 171.139C364.973 172.379 362.338 172.107 360.41 171.516C358.23 170.829 354.597 167.505 354.257 167.244C352.368 169.351 350.339 171.329 348.183 173.164C346.923 174.249 345.634 175.295 344.307 176.322C344.976 175.944 345.576 175.605 345.663 175.566C348.153 174.501 353.599 173.89 355.595 176.186C355.916 176.576 356.152 177.028 356.286 177.514C356.421 178.001 356.452 178.51 356.377 179.009C356.302 179.508 356.123 179.985 355.851 180.411C355.58 180.836 355.221 181.199 354.8 181.477C353.056 182.717 350.421 182.446 348.493 181.855C346.564 181.263 343.338 178.473 342.505 177.727L340.984 178.899C338.542 180.769 336.139 182.62 333.765 184.509C332.942 185.178 332.157 185.866 331.363 186.544C331.963 186.205 332.457 185.924 332.545 185.895C335.035 184.819 340.48 184.219 342.476 186.505C342.798 186.894 343.035 187.346 343.171 187.833C343.307 188.319 343.338 188.829 343.263 189.328C343.188 189.828 343.009 190.306 342.736 190.731C342.463 191.156 342.104 191.519 341.681 191.795C339.928 193.035 337.302 192.764 335.374 192.183C333.446 191.602 330.529 189.063 329.56 188.181C328.776 188.908 327.981 189.625 327.254 190.371C326.76 190.885 326.286 191.34 325.801 191.892C325.317 192.444 324.832 192.939 324.406 193.462C323.563 194.489 322.681 195.555 321.877 196.582C321.315 197.289 320.792 197.977 320.269 198.665C321.073 197.996 322.701 196.727 322.846 196.62C325.142 195.186 330.432 193.762 332.758 195.719C333.133 196.057 333.434 196.47 333.639 196.932C333.845 197.394 333.951 197.893 333.951 198.398C333.951 198.904 333.845 199.403 333.639 199.865C333.434 200.326 333.133 200.739 332.758 201.077C331.217 202.56 328.582 202.724 326.586 202.414C324.377 202.066 320.385 199.508 319.891 199.14C319.019 200.283 318.186 201.407 317.411 202.482C314.727 206.193 312.634 209.381 311.2 211.638L311.055 211.861L309.194 210.96C309.291 210.815 309.388 210.679 309.485 210.524C310.987 208.276 313.176 205.098 315.967 201.407C316.849 200.244 317.808 199.014 318.806 197.754C317.767 196.624 316.797 195.433 315.899 194.188C313.758 195.022 309.311 195.06 308.739 195.06C308.652 196.494 308.574 197.89 308.516 199.207C308.322 203.79 308.342 207.608 308.39 210.272V210.592L306.346 209.623C306.346 206.978 306.452 203.383 306.724 199.149C306.811 197.686 306.937 196.126 307.082 194.537C306.511 194.392 301.889 193.2 300.145 191.805C298.566 190.545 296.899 188.491 296.957 186.35C296.952 185.845 297.053 185.345 297.255 184.881C297.456 184.418 297.753 184.003 298.127 183.663C298.5 183.322 298.941 183.065 299.42 182.907C299.9 182.749 300.408 182.694 300.91 182.746C303.924 183.133 306.443 187.997 306.947 190.662C306.947 190.817 307.102 192.6 307.16 193.665C307.228 193.006 307.276 192.377 307.344 191.728C307.479 190.4 307.654 189.073 307.838 187.648C307.944 186.97 308.061 186.282 308.167 185.585C308.274 184.887 308.458 184.17 308.603 183.453C308.972 181.806 309.417 180.149 309.911 178.492C308.749 178.366 304.631 177.882 302.858 176.874C301.085 175.867 299.147 174.084 298.885 171.962C298.803 171.463 298.827 170.953 298.955 170.464C299.084 169.975 299.315 169.519 299.632 169.125C299.95 168.732 300.347 168.41 300.798 168.181C301.248 167.952 301.742 167.821 302.247 167.796C305.28 167.718 308.516 172.146 309.408 174.704C309.466 174.869 309.902 176.777 310.115 177.834C310.425 176.865 310.716 175.838 311.084 174.849C312.053 171.943 313.147 169.094 314.213 166.217C314.543 165.335 314.853 164.453 315.182 163.581C314.765 163.581 309.853 163.068 307.877 161.934C306.123 160.965 304.166 159.144 303.895 157.022C303.815 156.523 303.841 156.014 303.971 155.526C304.101 155.039 304.332 154.584 304.649 154.191C304.966 153.798 305.362 153.476 305.811 153.246C306.26 153.016 306.753 152.883 307.257 152.856C310.299 152.778 313.535 157.206 314.426 159.764C314.494 159.958 315.114 162.67 315.24 163.417C315.938 161.479 316.626 159.541 317.178 157.603C317.997 154.987 318.645 152.32 319.116 149.619C318.922 149.619 313.787 149.135 311.772 147.972C310.008 147.003 308.051 145.182 307.789 143.06C307.71 142.562 307.736 142.052 307.866 141.565C307.996 141.077 308.227 140.622 308.544 140.229C308.861 139.837 309.257 139.515 309.706 139.285C310.155 139.055 310.648 138.921 311.152 138.894C314.184 138.826 317.42 143.244 318.312 145.802C318.37 145.976 318.845 148.069 319.048 149.067H319.222C319.622 146.338 319.778 143.579 319.687 140.822C319.687 139.301 319.542 137.857 319.397 136.443C318.428 136.443 314.029 136.443 312.091 135.609C310.154 134.776 308.09 133.245 307.586 131.162C307.452 130.674 307.422 130.163 307.498 129.663C307.575 129.163 307.757 128.684 308.031 128.259C308.305 127.834 308.667 127.471 309.091 127.195C309.515 126.919 309.993 126.735 310.493 126.657C313.506 126.25 317.207 130.29 318.379 132.741C318.438 132.877 318.941 134.301 319.28 135.338C319.213 134.708 319.145 134.049 319.058 133.449C318.757 131.172 318.331 129.098 317.943 127.277C317.711 126.24 317.488 125.339 317.265 124.438C316.296 123.954 312.498 121.958 311.19 120.34C309.882 118.722 308.739 116.406 309.252 114.323C309.363 113.826 309.578 113.359 309.883 112.951C310.187 112.544 310.575 112.206 311.02 111.96C311.465 111.713 311.958 111.564 312.465 111.522C312.972 111.48 313.482 111.547 313.961 111.716Z" fill="white"/>
<path d="M368.878 158.543C366.504 158.446 361.757 156.014 361.757 156.004C361.757 155.995 364.305 153.369 364.489 153.224C366.611 151.528 371.707 149.513 374.236 151.189C374.648 151.481 374.995 151.856 375.253 152.29C375.511 152.724 375.675 153.207 375.735 153.709C375.794 154.21 375.748 154.718 375.598 155.201C375.448 155.683 375.199 156.129 374.866 156.508C373.509 158.136 370.903 158.62 368.878 158.543Z" fill="white"/>
</g>
<path d="M341.158 217.994C341.158 217.994 326.751 183.259 318.689 184.771C310.628 186.282 332.496 240.133 332.496 240.133C332.496 240.133 307.15 192.319 289.865 192.319C272.58 192.319 296.202 245.172 318.089 262.786C318.089 262.786 283.528 225.542 263.366 233.593C243.203 241.645 303.691 279.393 303.691 279.393C303.691 279.393 268.549 268.318 272.58 276.874C276.611 285.429 287.559 286.94 287.559 286.94L247.834 288.956H386.095L354.984 285.933C354.984 285.933 387.248 269.83 378.606 263.29C369.963 256.75 350.954 270.837 350.954 270.837C350.954 270.837 383.789 234.601 377.453 221.007C371.116 207.414 342.883 245.675 342.883 245.675C342.883 245.675 365.933 196.853 361.292 188.298C356.651 179.742 341.158 217.994 341.158 217.994Z" fill="#615FFF"/>
<path opacity="0.4" d="M341.158 217.994C341.158 217.994 326.751 183.259 318.689 184.771C310.628 186.282 332.496 240.133 332.496 240.133C332.496 240.133 307.15 192.319 289.865 192.319C272.58 192.319 296.202 245.172 318.089 262.786C318.089 262.786 283.528 225.542 263.366 233.593C243.203 241.645 303.691 279.393 303.691 279.393C303.691 279.393 268.549 268.318 272.58 276.874C276.611 285.429 287.559 286.94 287.559 286.94L247.834 288.956H386.095L354.984 285.933C354.984 285.933 387.248 269.83 378.606 263.29C369.963 256.75 350.954 270.837 350.954 270.837C350.954 270.837 383.789 234.601 377.453 221.007C371.116 207.414 342.883 245.675 342.883 245.675C342.883 245.675 365.933 196.853 361.292 188.298C356.651 179.742 341.158 217.994 341.158 217.994Z" fill="white"/>
<path d="M345.77 219.816C333.087 257.263 333.087 283.763 333.087 283.763C333.087 283.763 348.066 284.334 363.627 272.814" stroke="#263238" stroke-linecap="round" stroke-linejoin="round"/>
<path d="M339.433 239.988C336.818 228.791 333.349 217.81 329.057 207.143" stroke="#263238" stroke-linecap="round" stroke-linejoin="round"/>
<path d="M301.986 218.091L334.24 265.906C334.24 265.906 356.137 247.497 363.627 237.101" stroke="#263238" stroke-linecap="round" stroke-linejoin="round"/>
<path d="M333.669 277.436C333.669 277.436 299.68 261.304 285.854 252.119" stroke="#263238" stroke-linecap="round" stroke-linejoin="round"/>
<path d="M303.158 19.5846H199.642C195.404 19.5846 191.968 23.0202 191.968 27.2582V281.282C191.968 285.52 195.404 288.956 199.642 288.956H303.158C307.396 288.956 310.832 285.52 310.832 281.282V27.2582C310.832 23.0202 307.396 19.5846 303.158 19.5846Z" fill="white" stroke="#263238" stroke-linecap="round" stroke-linejoin="round"/>
<path d="M306.859 66.7406C306.44 66.7406 306.039 66.5742 305.743 66.278C305.446 65.9818 305.28 65.5801 305.28 65.1613V43.991C305.311 43.5923 305.492 43.22 305.785 42.9484C306.079 42.6768 306.464 42.526 306.864 42.526C307.264 42.526 307.649 42.6768 307.943 42.9484C308.237 43.22 308.417 43.5923 308.448 43.991V65.1225C308.452 65.3336 308.414 65.5434 308.336 65.7395C308.258 65.9357 308.141 66.1143 307.993 66.2649C307.845 66.4156 307.669 66.5352 307.474 66.6169C307.279 66.6986 307.07 66.7406 306.859 66.7406Z" fill="#263238"/>
<path d="M306.859 86.3509C306.44 86.3509 306.039 86.1845 305.743 85.8883C305.446 85.5922 305.28 85.1905 305.28 84.7716V72.9414C305.311 72.5427 305.492 72.1704 305.785 71.8988C306.079 71.6273 306.464 71.4764 306.864 71.4764C307.264 71.4764 307.649 71.6273 307.943 71.8988C308.237 72.1704 308.417 72.5427 308.448 72.9414V84.7716C308.446 85.1913 308.277 85.593 307.979 85.8889C307.682 86.1848 307.279 86.3509 306.859 86.3509Z" fill="#263238"/>
<path d="M294.196 19.5846H190.68C186.442 19.5846 183.006 23.0202 183.006 27.2582V281.282C183.006 285.52 186.442 288.956 190.68 288.956H294.196C298.434 288.956 301.87 285.52 301.87 281.282V27.2582C301.87 23.0202 298.434 19.5846 294.196 19.5846Z" fill="#263238" stroke="#263238" stroke-linecap="round" stroke-linejoin="round"/>
<path d="M293.954 37.5188H190.922V268.561H293.954V37.5188Z" fill="#615FFF"/>
<path d="M227.139 30.1359H254.568" stroke="white" stroke-width="3" stroke-linecap="round" stroke-linejoin="round"/>
<path d="M238.746 276.738C238.746 278.627 237.564 280.158 236.101 280.158C234.638 280.158 233.466 278.627 233.466 276.738C233.466 274.849 234.648 273.308 236.101 273.308C237.555 273.308 238.746 274.839 238.746 276.738Z" fill="white"/>
<path d="M242.438 95.0128C252.305 95.0128 260.304 85.6864 260.304 74.1816C260.304 62.6769 252.305 53.3505 242.438 53.3505C232.57 53.3505 224.571 62.6769 224.571 74.1816C224.571 85.6864 232.57 95.0128 242.438 95.0128Z" fill="white"/>
<path d="M242.438 73.9201C246.183 73.9201 249.22 70.376 249.22 66.0042C249.22 61.6324 246.183 58.0884 242.438 58.0884C238.692 58.0884 235.655 61.6324 235.655 66.0042C235.655 70.376 238.692 73.9201 242.438 73.9201Z" fill="#263238" stroke="#263238" stroke-linecap="round" stroke-linejoin="round"/>
<path d="M242.438 76.0225C235.655 76.0225 230.104 81.2254 230.104 87.6492C230.109 88.2469 230.164 88.8432 230.268 89.4319C231.773 91.1877 233.64 92.5972 235.74 93.5636C237.841 94.5299 240.126 95.0303 242.438 95.0303C244.75 95.0303 247.035 94.5299 249.135 93.5636C251.236 92.5972 253.103 91.1877 254.607 89.4319C254.703 88.8424 254.755 88.2464 254.762 87.6492C254.762 81.2254 249.239 76.0225 242.438 76.0225Z" fill="#263238" stroke="#263238" stroke-linecap="round" stroke-linejoin="round"/>
<path d="M264.16 164.918H220.715C219.565 164.873 218.481 164.373 217.699 163.528C216.918 162.683 216.504 161.563 216.549 160.413V133.594C216.549 118.14 228.176 105.564 242.438 105.564C256.7 105.564 268.317 118.16 268.317 133.594V160.394C268.342 160.964 268.254 161.533 268.058 162.069C267.862 162.605 267.563 163.098 267.177 163.518C266.791 163.938 266.326 164.278 265.808 164.518C265.29 164.759 264.73 164.895 264.16 164.918ZM224.872 155.908H259.994V133.623C259.994 123.14 252.117 114.604 242.438 114.604C232.758 114.604 224.872 123.14 224.872 133.623V155.908Z" fill="#263238"/>
<path d="M272.599 146.616H212.276V203.684H272.599V146.616Z" fill="white"/>
<path d="M251.226 185.904L246.749 175.14C247.739 174.392 248.54 173.421 249.087 172.307C249.633 171.194 249.911 169.967 249.898 168.726C249.898 164.434 246.691 160.975 242.728 160.975C238.766 160.975 235.568 164.443 235.568 168.726C235.553 169.966 235.829 171.193 236.375 172.307C236.92 173.421 237.719 174.391 238.708 175.14L234.241 185.904H251.226Z" fill="#263238" stroke="#263238" stroke-linecap="round" stroke-linejoin="round"/>
<path d="M224.058 254.967C224.151 255.035 224.263 255.072 224.378 255.074C224.46 255.073 224.541 255.053 224.614 255.014C224.686 254.975 224.748 254.919 224.794 254.851L293.954 160.781V158.998L223.98 254.231C223.937 254.284 223.905 254.346 223.885 254.412C223.866 254.477 223.859 254.547 223.866 254.615C223.874 254.683 223.894 254.75 223.927 254.81C223.96 254.871 224.004 254.924 224.058 254.967Z" fill="white"/>
<path d="M280.04 71.4106C279.999 71.4663 279.969 71.5298 279.953 71.5972C279.936 71.6645 279.934 71.7345 279.944 71.8031C279.955 71.8716 279.98 71.9373 280.016 71.9963C280.052 72.0553 280.1 72.1065 280.157 72.1469C280.27 72.2277 280.411 72.2607 280.549 72.239C280.686 72.2172 280.81 72.1425 280.893 72.0306L293.954 54.2709V52.5269L280.04 71.4106Z" fill="white"/>
<path d="M190.922 194.431L276.3 78.3285C276.383 78.2155 276.417 78.0743 276.395 77.9363C276.373 77.7982 276.297 77.6744 276.184 77.5922C276.071 77.5099 275.93 77.476 275.792 77.4978C275.654 77.5196 275.53 77.5954 275.448 77.7084L190.961 192.648L190.922 194.431Z" fill="white"/>
<path d="M216.035 266.419C216.118 266.418 216.199 266.398 216.273 266.361C216.347 266.324 216.411 266.271 216.462 266.206L221.306 259.656C221.347 259.601 221.377 259.537 221.394 259.47C221.41 259.402 221.413 259.332 221.402 259.264C221.391 259.195 221.367 259.13 221.331 259.071C221.294 259.012 221.246 258.96 221.19 258.92C221.076 258.839 220.936 258.806 220.798 258.828C220.66 258.85 220.537 258.925 220.454 259.036L215.609 265.576C215.567 265.632 215.537 265.695 215.52 265.762C215.503 265.829 215.499 265.898 215.509 265.967C215.519 266.035 215.542 266.101 215.578 266.161C215.613 266.22 215.66 266.272 215.716 266.313C215.807 266.385 215.92 266.422 216.035 266.419Z" fill="white"/>
<path d="M293.954 179.616L237.177 256.847C237.119 256.925 237.084 257.018 237.077 257.115C237.069 257.212 237.088 257.309 237.132 257.395C237.177 257.482 237.244 257.554 237.327 257.604C237.41 257.655 237.506 257.681 237.603 257.68C237.686 257.682 237.768 257.663 237.842 257.626C237.917 257.589 237.981 257.534 238.029 257.467L293.954 181.39V179.616Z" fill="white"/>
<path d="M94.5461 71.0714C95.5068 68.9428 95.9707 66.6236 95.9026 64.2892C95.9026 59.9582 90.6609 57.4488 84.4987 56.7609C78.3366 56.073 75.6043 58.5824 76.5151 60.1811C77.4615 61.4996 78.6168 62.6548 79.9353 63.6013C79.9353 63.6013 73.7731 60.1811 69.665 62.9231C65.5569 65.665 71.4962 64.5217 70.3529 67.254C69.2096 69.9863 62.8246 68.8527 61.226 76.1484C59.6273 83.4442 64.1908 90.7496 60.0827 93.947C55.9746 97.1443 43.6115 92.8037 40.0073 100.787C36.403 108.771 41.5187 112.317 32.8568 117.336C24.1949 122.355 17.8778 127.257 20.3872 139.572C22.8966 151.887 31.1128 156.198 47.3127 151.848C63.5126 147.498 62.3693 137.702 67.6594 127.626C72.9496 117.549 81.127 119.642 83.6364 113.935C86.1459 108.228 82.9485 101.388 83.181 96.1366C83.4136 90.8853 88.6553 89.7517 90.7093 83.5411C92.7634 77.3305 94.5461 71.0714 94.5461 71.0714Z" fill="#263238" stroke="#263238" stroke-linecap="round" stroke-linejoin="round"/>
<path d="M22.2765 139.339C21.8516 140.197 21.6358 141.144 21.6468 142.101" stroke="white" stroke-width="0.5" stroke-linecap="round" stroke-linejoin="round"/>
<path d="M85.7874 66.5467C85.7874 66.5467 82.9388 63.2525 88.4227 64.7833C95.3309 66.7211 87.2213 74.7144 84.1015 76.3228C77.8425 79.5298 69.5681 78.5028 64.7237 84.3355C60.3249 89.6063 66.2642 95.0999 63.6288 99.2758C60.9934 103.452 50.4422 101.03 46.9348 106.058C43.4274 111.087 53.3004 121.88 43.1949 127.81C35.8895 132.102 27.8864 133.749 24.0205 137.15" stroke="white" stroke-width="0.5" stroke-linecap="round" stroke-linejoin="round"/>
<path d="M69.4034 86.0408C68.8046 87.4419 68.623 88.9861 68.8802 90.488C69.7522 94.2182 74.8098 101.252 70.1979 105.205C65.586 109.159 57.6701 108.936 56.3621 113.567C55.0541 118.198 57.6798 130.92 53.2908 136.82C48.9017 142.721 40.327 142.314 35.7151 146.267C31.1031 150.22 31.762 152.42 31.762 152.42" stroke="white" stroke-width="0.5" stroke-linecap="round" stroke-linejoin="round"/>
<path d="M71.7288 81.7002C71.3295 82.2646 70.9607 82.85 70.6242 83.4539" stroke="white" stroke-width="0.5" stroke-linecap="round" stroke-linejoin="round"/>
<path d="M97.5013 138.991L98.6155 147.711C98.6155 147.711 104.429 153.524 108.702 157.119C112.974 160.713 123.923 168.319 123.923 168.319L118.371 169.898C118.371 169.898 100.224 159.144 96.639 158.272C93.0541 157.4 90.3702 152.226 89.256 150.656C88.1418 149.087 94.5849 137.421 97.5013 138.991Z" fill="white" stroke="#263238" stroke-linecap="round" stroke-linejoin="round"/>
<path d="M108.585 280.865C108.585 280.865 114.069 285.497 116.337 287.047C118.604 288.597 121.249 289.295 120.832 290.138C120.416 290.981 119.282 291.824 113.943 291.107C108.605 290.39 107.064 288.578 106.076 288.297C105.088 288.016 102.704 288.723 100.883 287.599C99.0612 286.475 101.948 279.78 101.948 279.78C102.749 280.716 103.854 281.338 105.069 281.536C106.283 281.735 107.529 281.497 108.585 280.865Z" fill="white" stroke="#263238" stroke-linecap="round" stroke-linejoin="round"/>
<path d="M120.813 290.138C120.817 290.093 120.817 290.047 120.813 290.002C117.731 290.285 114.622 289.993 111.647 289.14C108.198 288.326 107.18 286.495 103.896 286.495C102.607 286.506 101.326 286.297 100.108 285.875C100.072 286.198 100.117 286.525 100.236 286.827C100.356 287.129 100.548 287.398 100.795 287.609C102.617 288.733 105.01 288.026 105.989 288.307C106.967 288.588 108.518 290.419 113.856 291.116C119.195 291.814 120.386 290.981 120.813 290.138Z" fill="white" stroke="#263238" stroke-linecap="round" stroke-linejoin="round"/>
<path d="M79.8771 93.6078C79.8771 93.6078 80.9332 100.719 79.5768 103.587C78.2203 106.455 73.9766 106.765 70.3529 107.376C66.7293 107.986 58.4065 111.154 59.3076 119.322C60.2086 127.49 70.6533 145.182 70.6533 150.172C70.6533 155.161 67.4753 157.729 63.997 167.408C60.5187 177.087 60.9741 195.089 62.0592 206.736C62.8546 214.422 64.3728 222.016 66.5936 229.417C66.5936 229.417 57.8736 243.486 53.998 249.531C50.1225 255.577 36.558 281.902 36.558 281.902C36.558 281.902 36.558 282.803 38.6702 283.414C40.1562 283.775 41.6936 283.877 43.2143 283.714C43.2143 283.714 69.2193 252.409 74.0638 247.119C78.9082 241.829 83.4427 232.586 84.0434 228.361C84.6441 224.137 83.898 198.267 83.898 198.267C83.898 198.267 89.3335 211.27 93.5869 217.926C96.1667 222 98.534 226.204 100.679 230.522C100.084 235.996 100.084 241.519 100.679 246.993C101.735 254.55 100.844 278.831 101.9 280.798C102.956 282.764 107.055 281.941 107.965 281.04C108.876 280.139 109.302 274.258 109.302 274.258C109.302 274.258 111.114 255.849 112.209 247.187C113.304 238.525 115.116 231.152 114.486 229.185C113.856 227.218 110.097 206.193 107.219 196.242C104.342 186.292 95.5926 167.66 93.6548 162.825C91.717 157.991 90.6221 153.592 90.9322 152.08C91.2422 150.569 97.1331 141.5 98.6833 139.078C99.5671 137.436 100.055 135.61 100.107 133.746C100.159 131.882 99.7742 130.031 98.9837 128.343C97.1718 124.409 98.9837 119.109 98.6833 115.941C98.3829 112.772 93.6935 111.397 91.2713 110.195C88.8491 108.994 87.9383 106.262 87.9383 103.994C88.0862 102.084 88.5478 100.212 89.3044 98.4522C89.3044 98.4522 81.844 93.6078 79.8771 93.6078Z" fill="white" stroke="#263238" stroke-linecap="round" stroke-linejoin="round"/>
<path d="M98.2086 125.959C97.4118 123.934 96.7483 121.86 96.2223 119.749" stroke="#263238" stroke-linecap="round" stroke-linejoin="round"/>
<path d="M78.5691 142.798C78.5691 142.798 81.3014 143.399 86.7756 140.667" stroke="#263238" stroke-linecap="round" stroke-linejoin="round"/>
<path d="M107.248 196.146C104.506 186.612 96.3773 169.201 93.9454 163.455C82.3187 167.815 71.4478 164.095 66.3417 161.692C65.6054 163.3 64.8109 165.161 63.997 167.408C60.5187 177.097 60.9741 195.09 62.0592 206.736C62.8546 214.422 64.3728 222.016 66.5936 229.417C66.5936 229.417 57.8736 243.486 53.998 249.532C50.1225 255.577 36.558 281.902 36.558 281.902C36.558 281.902 36.558 282.803 38.6702 283.414C40.1562 283.775 41.6936 283.877 43.2143 283.714C43.2143 283.714 69.2193 252.409 74.0638 247.119C78.9082 241.829 83.4427 232.586 84.0434 228.361C84.6441 224.137 83.898 198.268 83.898 198.268C83.898 198.268 89.3335 211.27 93.5869 217.926C96.1667 222 98.534 226.204 100.679 230.522C100.084 235.996 100.084 241.519 100.679 246.993C101.735 254.55 100.844 278.831 101.9 280.798C102.956 282.765 107.055 281.941 107.965 281.04C108.876 280.139 109.302 274.258 109.302 274.258C109.302 274.258 111.114 255.849 112.209 247.187C113.304 238.525 115.116 231.152 114.486 229.185C113.856 227.218 110.126 206.125 107.248 196.146Z" fill="#263238" stroke="#263238" stroke-linecap="round" stroke-linejoin="round"/>
<path d="M166.486 186.544V184.567H168.143V169.046H166.486H150.131H148.475V184.567H150.131V186.544H148.465V190.148H154.85V188.937H161.768V190.148H168.153V186.544H166.486Z" fill="#615FFF" stroke="#263238" stroke-linecap="round" stroke-linejoin="round"/>
<path d="M60.7803 164.405H174.877C175.334 164.405 175.773 164.586 176.096 164.91C176.42 165.233 176.602 165.672 176.602 166.129V169.598C176.602 170.055 176.42 170.494 176.096 170.817C175.773 171.141 175.334 171.323 174.877 171.323H60.7803V164.395V164.405Z" fill="#615FFF" stroke="#263238" stroke-linecap="round" stroke-linejoin="round"/>
<path d="M142.671 163.368H135.724C135.194 163.368 134.765 163.798 134.765 164.327V171.41C134.765 171.94 135.194 172.369 135.724 172.369H142.671C143.201 172.369 143.63 171.94 143.63 171.41V164.327C143.63 163.798 143.201 163.368 142.671 163.368Z" fill="#615FFF" stroke="#263238" stroke-linecap="round" stroke-linejoin="round"/>
<path d="M64.35 170.782C65.9576 160.965 59.3026 151.704 49.4858 150.096C39.669 148.489 30.4077 155.144 28.8001 164.96C27.1925 174.777 33.8475 184.039 43.6643 185.646C53.4811 187.254 62.7424 180.599 64.35 170.782Z" fill="#615FFF" stroke="#263238" stroke-linecap="round" stroke-linejoin="round"/>
<path d="M50.2775 167.825C51.3217 167.325 52.2079 166.547 52.8386 165.576C53.4693 164.605 53.8202 163.479 53.8527 162.322C53.8527 158.785 50.5972 155.917 46.5763 155.917C42.5554 155.917 39.3 158.824 39.3 162.322C39.3303 163.479 39.6803 164.606 40.3113 165.578C40.9423 166.549 41.8296 167.327 42.8752 167.825C41.8302 168.327 40.9437 169.107 40.313 170.079C39.6823 171.052 39.3318 172.179 39.3 173.338C39.3 176.874 42.5554 179.742 46.5763 179.742C50.5972 179.742 53.8527 176.836 53.8527 173.338C53.8187 172.18 53.4674 171.053 52.8369 170.081C52.2064 169.109 51.3211 168.328 50.2775 167.825Z" fill="white" stroke="#263238" stroke-linecap="round" stroke-linejoin="round"/>
<path d="M120.367 171.478C120.367 171.478 126.006 173.861 127.75 173.861C129.494 173.861 131.509 172.107 132.507 169.986C133.505 167.864 133.476 166.856 132.885 167.36L131.635 168.329C131.635 168.329 132.604 166.207 131.509 166.459C130.751 166.711 130.122 167.25 129.756 167.961C129.756 167.961 129.63 166.081 128.632 166.992C127.971 167.59 127.383 168.263 126.878 168.997C126.878 168.997 126.752 166.623 126.122 167.244C125.493 167.864 123.128 171.245 123.128 171.245L120.367 171.478Z" fill="white" stroke="#263238" stroke-linecap="round" stroke-linejoin="round"/>
<path d="M126.878 168.978C126.878 168.978 126.5 171.981 124.63 172.485Z" fill="white"/>
<path d="M126.878 168.978C126.878 168.978 126.5 171.981 124.63 172.485" stroke="#263238" stroke-linecap="round" stroke-linejoin="round"/>
<path d="M129.756 167.98C129.756 167.98 128.787 172.728 127.256 173.483Z" fill="white"/>
<path d="M129.756 167.98C129.756 167.98 128.787 172.728 127.256 173.483" stroke="#263238" stroke-linecap="round" stroke-linejoin="round"/>
<path d="M131.635 168.348C131.136 170.081 130.464 171.759 129.63 173.357Z" fill="white"/>
<path d="M131.635 168.348C131.136 170.081 130.464 171.759 129.63 173.357" stroke="#263238" stroke-linecap="round" stroke-linejoin="round"/>
<path d="M90.9128 109.905C89.937 109.246 89.1466 108.347 88.6173 107.296C88.088 106.244 87.8375 105.074 87.8899 103.897C88.0636 102.018 88.5413 100.179 89.3044 98.4522C89.3044 98.4522 81.8924 93.6078 79.9256 93.6078C79.9256 93.6078 80.9817 100.719 79.6252 103.587C79.1806 104.479 78.4556 105.201 77.5615 105.641C79.3528 110.464 81.7803 115.026 84.7797 119.206C87.5023 122.626 88.8297 115.418 90.9128 109.905Z" fill="white" stroke="#263238" stroke-linecap="round" stroke-linejoin="round"/>
<path d="M68.0373 108.354C66.1884 108.67 64.4382 109.411 62.9249 110.519C61.4115 111.627 60.1765 113.072 59.3173 114.739C56.3331 120.495 43.2918 146.616 44.406 148.176C50.7426 157.09 73.7925 163.504 76.1372 165.848C78.4812 168.3 81.054 170.523 83.8205 172.485C86.1652 173.977 90.845 173.338 91.6976 172.912C92.5502 172.485 93.1897 170.567 91.6976 170.567C91.1276 170.574 90.5722 170.386 90.1243 170.033C89.6763 169.681 89.363 169.185 89.2366 168.629C89.0235 167.776 91.5813 169.482 92.8603 168.842C94.1392 168.203 90.002 165.868 88.7231 164.802C87.4442 163.736 86.3784 162.254 84.6731 162.254C82.9679 162.254 79.7609 162.254 79.7609 162.254C79.7609 162.254 71.9128 156.566 67.1653 152.332C63.4711 148.999 59.4416 146.057 55.1413 143.554L69.5294 119.884" fill="white"/>
<path d="M68.0373 108.354C66.1884 108.67 64.4382 109.411 62.9249 110.519C61.4115 111.627 60.1765 113.072 59.3173 114.739C56.3331 120.495 43.2918 146.616 44.406 148.176C50.7426 157.09 73.7925 163.504 76.1372 165.848C78.4812 168.3 81.054 170.523 83.8205 172.485C86.1652 173.977 90.845 173.338 91.6976 172.912C92.5502 172.485 93.1897 170.567 91.6976 170.567C91.1276 170.574 90.5722 170.386 90.1243 170.033C89.6763 169.681 89.363 169.185 89.2366 168.629C89.0235 167.776 91.5813 169.482 92.8603 168.842C94.1392 168.203 90.002 165.868 88.7231 164.802C87.4442 163.736 86.3784 162.254 84.6731 162.254C82.9679 162.254 79.7609 162.254 79.7609 162.254C79.7609 162.254 71.9128 156.566 67.1653 152.332C63.4711 148.999 59.4416 146.057 55.1413 143.554L69.5294 119.884" stroke="#263238" stroke-linecap="round" stroke-linejoin="round"/>
<path d="M88.7134 164.812C87.4345 163.746 86.3687 162.263 84.6635 162.263C82.9582 162.263 79.7512 162.263 79.7512 162.263C79.7512 162.263 71.9032 156.576 67.1556 152.342C63.4614 149.009 59.432 146.067 55.1316 143.564L60.8869 134.088C57.9446 132.307 54.5789 131.347 51.1398 131.307C47.2642 139.388 43.7859 147.372 44.3576 148.215C50.6941 157.128 73.744 163.542 76.0888 165.887C78.4328 168.339 81.0056 170.561 83.7721 172.524C86.1168 174.016 90.7965 173.377 91.6492 172.95C92.5018 172.524 93.1413 170.606 91.6492 170.606C91.0791 170.613 90.5237 170.425 90.0758 170.072C89.6279 169.719 89.3146 169.224 89.1882 168.668C88.975 167.815 91.5329 169.52 92.8118 168.881C94.0908 168.242 89.9924 165.887 88.7134 164.812Z" fill="white" stroke="#263238" stroke-linecap="round" stroke-linejoin="round"/>
<path d="M96.513 83.1729C95.7573 81.6614 95.7573 80.4503 96.0576 78.3285C96.358 76.2066 94.5461 71.0618 94.5461 71.0618C92.6956 74.2591 87.3473 76.1581 84.9832 76.8751C82.3769 77.6696 86.1846 79.4717 85.7777 81.8843C85.3707 84.2968 80.1678 85.692 80.1678 85.692C80.1678 85.692 78.6466 82.5625 76.5345 82.5625C74.4223 82.5625 72.9205 87.407 74.1219 89.9745C74.435 90.6858 74.9803 91.2697 75.6685 91.6305C76.3568 91.9914 77.1472 92.1078 77.9103 91.9607C77.9103 91.9607 77.7649 96.5048 80.6329 97.8613C83.6929 99.3214 86.8854 100.486 90.1668 101.34C91.9786 101.64 93.7904 100.739 94.5461 98.0163C95.1372 95.2726 95.5418 92.492 95.7573 89.6935C97.0259 88.8634 98.1933 87.8879 99.2356 86.7869C99.9622 85.7405 97.2687 84.6844 96.513 83.1729Z" fill="white" stroke="#263238" stroke-linecap="round" stroke-linejoin="round"/>
<path d="M93.5676 83.2407C93.5676 84.0739 93.2963 84.7425 92.9669 84.7425C92.6374 84.7425 92.3661 84.0739 92.3661 83.2407C92.3661 82.4074 92.6374 81.7389 92.9669 81.7389C93.2963 81.7389 93.5676 82.4074 93.5676 83.2407Z" fill="#263238"/>
<path d="M90.9613 80.7409C90.9613 80.7409 92.5696 78.9291 93.771 79.336" stroke="#263238" stroke-linecap="round" stroke-linejoin="round"/>
<path d="M93.771 93.1621C93.0449 93.3811 92.2742 93.407 91.5351 93.2371C90.796 93.0671 90.1139 92.7074 89.5564 92.1932" stroke="#263238" stroke-linecap="round" stroke-linejoin="round"/>
<path d="M36.6258 281.902C36.6258 281.902 33.0119 289.15 33.1475 290.138C33.2831 291.126 40.4529 296.319 43.8053 298.141C47.1577 299.962 53.2229 300.253 52.7966 297.724C52.3703 295.195 46.6151 293.51 45.2102 289.711C44.462 287.747 43.8153 285.745 43.2724 283.714C40.9304 283.749 38.6262 283.121 36.6258 281.902Z" fill="white" stroke="#263238" stroke-linecap="round" stroke-linejoin="round"/>
<path d="M52.816 297.763C50.2364 298.109 47.6114 297.737 45.2296 296.687C40.0266 294.43 34.9884 289.818 33.6029 288.51C33.3568 289.033 33.1996 289.593 33.1378 290.167C33.2831 291.136 40.4433 296.348 43.7956 298.17C47.148 299.991 53.1648 300.243 52.816 297.763Z" fill="white" stroke="#263238" stroke-linecap="round" stroke-linejoin="round"/>
</svg>
